<?xml version="1.0" standalone="no"?><!-- Generator: Gravit.io --><svg xmlns="http://www.w3.org/2000/svg" xmlns:xlink="http://www.w3.org/1999/xlink" style="isolation:isolate" viewBox="0 0 481.024 444.443" width="481.024" height="444.443"><defs><clipPath id="_clipPath_uN28tor0M4mvsnseRYxgk8euuXo9y2mX"><rect width="481.024" height="444.443"/></clipPath></defs><g clip-path="url(#_clipPath_uN28tor0M4mvsnseRYxgk8euuXo9y2mX)"><g id="Shuttle"><g id="Group"><g id="Group"/><g id="Group"><path d=" M 481.024 0 L 284.273 47.684 L 323.687 76.378 L 315.722 112.218 L 340.591 97.581 L 362.74 139.644 L 481.024 0 Z " fill="rgb(57,175,181)"/><path d=" M 480.989 0.059 L 323.443 76.151 L 315.557 112.263 L 334.018 85.418 L 480.989 0.059 Z " fill="rgb(47,147,152)"/><path d=" M 340.601 97.64 L 333.909 85.506 L 315.544 112.291 L 340.601 97.64 Z " fill="rgb(30,119,123)"/></g></g><path d=" M 291.525 120.86 C 264.241 138.594 265.216 138.587 244.46 178.838 C 234.911 202.711 232.865 220.445 223.703 239.52 C 185.8 296.839 108.953 297.613 85.331 284.466 C 68.741 275.233 46.514 251.969 43.128 244.216 C 34.68 224.873 32.75 213.357 47.971 199.27 C 68.799 179.992 112.314 214.699 117.157 237.507 C 138.676 338.857 22.289 419.246 3 441.443" fill="none" vector-effect="non-scaling-stroke" stroke-width="6" stroke-dasharray="20,20,0,0" stroke="rgb(18,89,142)" stroke-linejoin="round" stroke-linecap="butt" stroke-miterlimit="3"/></g></g></svg>