<?xml version="1.0" standalone="no"?><!-- Generator: Gravit.io --><svg xmlns="http://www.w3.org/2000/svg" xmlns:xlink="http://www.w3.org/1999/xlink" style="isolation:isolate" viewBox="0 0 1200 800" width="1200" height="800"><defs><clipPath id="_clipPath_yGtaspiC6WaclVta0Ffeg29HWMT03lJh"><rect width="1200" height="800"/></clipPath></defs><g clip-path="url(#_clipPath_yGtaspiC6WaclVta0Ffeg29HWMT03lJh)"><path d=" M 42 773.875 C 42 705.093 102.267 649.25 176.5 649.25 C 250.733 649.25 311 705.093 311 773.875 C 311 842.657 250.733 898.5 176.5 898.5 C 102.267 898.5 42 842.657 42 773.875 Z " fill="rgb(239,246,248)"/><path d=" M 238 675.375 C 238 607.213 293.338 551.875 361.5 551.875 C 429.662 551.875 485 607.213 485 675.375 C 485 743.537 429.662 798.875 361.5 798.875 C 293.338 798.875 238 743.537 238 675.375 Z " fill="rgb(239,246,248)"/><path d=" M 333 772.75 C 333 704.588 388.338 649.25 456.5 649.25 C 524.662 649.25 580 704.588 580 772.75 C 580 840.912 524.662 896.25 456.5 896.25 C 388.338 896.25 333 840.912 333 772.75 Z " fill="rgb(239,246,248)"/><path d=" M 252 779.75 C 252 711.588 307.338 656.25 375.5 656.25 C 443.662 656.25 499 711.588 499 779.75 C 499 847.912 443.662 903.25 375.5 903.25 C 307.338 903.25 252 847.912 252 779.75 Z " fill="rgb(239,246,248)"/><path d=" M 447 629.5 C 447 561.338 502.338 506 570.5 506 C 638.662 506 694 561.338 694 629.5 C 694 697.662 638.662 753 570.5 753 C 502.338 753 447 697.662 447 629.5 Z " fill="rgb(239,246,248)"/><path d=" M 903.5 619.875 C 903.5 542.676 966.176 480 1043.375 480 C 1120.574 480 1183.25 542.676 1183.25 619.875 C 1183.25 697.074 1120.574 759.75 1043.375 759.75 C 966.176 759.75 903.5 697.074 903.5 619.875 Z " fill="rgb(239,246,248)"/><path d=" M 635.25 517.25 C 635.25 444.397 694.397 385.25 767.25 385.25 C 840.103 385.25 899.25 444.397 899.25 517.25 C 899.25 590.103 840.103 649.25 767.25 649.25 C 694.397 649.25 635.25 590.103 635.25 517.25 Z " fill="rgb(239,246,248)"/><path d=" M 1072.5 364 C 1072.5 291.147 1131.647 232 1204.5 232 C 1277.353 232 1336.5 291.147 1336.5 364 C 1336.5 436.853 1277.353 496 1204.5 496 C 1131.647 496 1072.5 436.853 1072.5 364 Z " fill="rgb(239,246,248)"/><path d=" M 851.25 415 C 851.25 342.147 910.397 283 983.25 283 C 1056.103 283 1115.25 342.147 1115.25 415 C 1115.25 487.853 1056.103 547 983.25 547 C 910.397 547 851.25 487.853 851.25 415 Z " fill="rgb(239,246,248)"/><path d=" M 771.5 627.75 C 771.5 554.897 830.647 495.75 903.5 495.75 C 976.353 495.75 1035.5 554.897 1035.5 627.75 C 1035.5 700.603 976.353 759.75 903.5 759.75 C 830.647 759.75 771.5 700.603 771.5 627.75 Z " fill="rgb(239,246,248)"/><path d=" M 999 551.875 C 999 479.022 1058.147 419.875 1131 419.875 C 1203.853 419.875 1263 479.022 1263 551.875 C 1263 624.728 1203.853 683.875 1131 683.875 C 1058.147 683.875 999 624.728 999 551.875 Z " fill="rgb(239,246,248)"/><path d=" M 659 690.625 C 659 644.678 696.303 607.375 742.25 607.375 C 788.197 607.375 825.5 644.678 825.5 690.625 C 825.5 736.572 788.197 773.875 742.25 773.875 C 696.303 773.875 659 736.572 659 690.625 Z " fill="rgb(255,255,255)"/><path d=" M 792 644.75 C 792 598.803 829.303 561.5 875.25 561.5 C 921.197 561.5 958.5 598.803 958.5 644.75 C 958.5 690.697 921.197 728 875.25 728 C 829.303 728 792 690.697 792 644.75 Z " fill="rgb(255,255,255)"/><path d=" M 906 607.375 C 906 561.428 943.303 524.125 989.25 524.125 C 1035.197 524.125 1072.5 561.428 1072.5 607.375 C 1072.5 653.322 1035.197 690.625 989.25 690.625 C 943.303 690.625 906 653.322 906 607.375 Z " fill="rgb(255,255,255)"/><path d=" M 774 718.375 C 774 672.428 811.303 635.125 857.25 635.125 C 903.197 635.125 940.5 672.428 940.5 718.375 C 940.5 764.322 903.197 801.625 857.25 801.625 C 811.303 801.625 774 764.322 774 718.375 Z " fill="rgb(255,255,255)"/><path d=" M 890 715.625 C 890 669.678 927.303 632.375 973.25 632.375 C 1019.197 632.375 1056.5 669.678 1056.5 715.625 C 1056.5 761.572 1019.197 798.875 973.25 798.875 C 927.303 798.875 890 761.572 890 715.625 Z " fill="rgb(255,255,255)"/><path d=" M 1082.25 649.25 C 1082.25 603.303 1119.553 566 1165.5 566 C 1211.447 566 1248.75 603.303 1248.75 649.25 C 1248.75 695.197 1211.447 732.5 1165.5 732.5 C 1119.553 732.5 1082.25 695.197 1082.25 649.25 Z " fill="rgb(255,255,255)"/><path d=" M 1016.75 690.625 C 1016.75 644.678 1054.053 607.375 1100 607.375 C 1145.947 607.375 1183.25 644.678 1183.25 690.625 C 1183.25 736.572 1145.947 773.875 1100 773.875 C 1054.053 773.875 1016.75 736.572 1016.75 690.625 Z " fill="rgb(255,255,255)"/><path d=" M 890 715.625 C 890 669.678 927.303 632.375 973.25 632.375 C 1019.197 632.375 1056.5 669.678 1056.5 715.625 C 1056.5 761.572 1019.197 798.875 973.25 798.875 C 927.303 798.875 890 761.572 890 715.625 Z " fill="rgb(255,255,255)"/><path d=" M 1131 480 C 1131 434.053 1168.303 396.75 1214.25 396.75 C 1260.197 396.75 1297.5 434.053 1297.5 480 C 1297.5 525.947 1260.197 563.25 1214.25 563.25 C 1168.303 563.25 1131 525.947 1131 480 Z " fill="rgb(255,255,255)"/><path d=" M 433.5 811.25 C 433.5 765.303 470.803 728 516.75 728 C 562.697 728 600 765.303 600 811.25 C 600 857.197 562.697 894.5 516.75 894.5 C 470.803 894.5 433.5 857.197 433.5 811.25 Z " fill="rgb(255,255,255)"/><path d=" M 553.743 790.821 C 544.39 745.836 573.319 701.721 618.304 692.368 C 663.289 683.015 707.404 711.944 716.757 756.929 C 726.11 801.914 697.181 846.029 652.196 855.382 C 607.211 864.735 563.096 835.806 553.743 790.821 Z " fill="rgb(255,255,255)"/><path d=" M 1035.5 544.5 C 1035.5 498.553 1072.803 461.25 1118.75 461.25 C 1164.697 461.25 1202 498.553 1202 544.5 C 1202 590.447 1164.697 627.75 1118.75 627.75 C 1072.803 627.75 1035.5 590.447 1035.5 544.5 Z " fill="rgb(255,255,255)"/></g></svg>