<?xml version="1.0" standalone="no"?><!-- Generator: Gravit.io --><svg xmlns="http://www.w3.org/2000/svg" xmlns:xlink="http://www.w3.org/1999/xlink" style="isolation:isolate" viewBox="0 0 1200 800" width="1200" height="800"><defs><clipPath id="_clipPath_FpXbhiNHxZcqMQyB3oKYfsRTTsogKCTn"><rect width="1200" height="800"/></clipPath></defs><g clip-path="url(#_clipPath_FpXbhiNHxZcqMQyB3oKYfsRTTsogKCTn)"><path d=" M -193 407.5 C -193 320.573 -122.427 250 -35.5 250 C 51.427 250 122 320.573 122 407.5 C 122 494.427 51.427 565 -35.5 565 C -122.427 565 -193 494.427 -193 407.5 Z " fill="rgb(239,246,248)"/><path d=" M 12 375 C 12 302.147 71.147 243 144 243 C 216.853 243 276 302.147 276 375 C 276 447.853 216.853 507 144 507 C 71.147 507 12 447.853 12 375 Z " fill="rgb(239,246,248)"/><path d=" M 122 468.75 C 122 376.166 197.166 301 289.75 301 C 382.334 301 457.5 376.166 457.5 468.75 C 457.5 561.334 382.334 636.5 289.75 636.5 C 197.166 636.5 122 561.334 122 468.75 Z " fill="rgb(239,246,248)"/><path d=" M 314 546.5 C 314 450.467 392.751 372.5 489.75 372.5 C 586.749 372.5 665.5 450.467 665.5 546.5 C 665.5 642.533 586.749 720.5 489.75 720.5 C 392.751 720.5 314 642.533 314 546.5 Z " fill="rgb(239,246,248)"/><path d=" M 578 588.5 C 578 515.647 637.147 456.5 710 456.5 C 782.853 456.5 842 515.647 842 588.5 C 842 661.353 782.853 720.5 710 720.5 C 637.147 720.5 578 661.353 578 588.5 Z " fill="rgb(239,246,248)"/><path d=" M 900 782 C 900 709.147 959.147 650 1032 650 C 1104.853 650 1164 709.147 1164 782 C 1164 854.853 1104.853 914 1032 914 C 959.147 914 900 854.853 900 782 Z " fill="rgb(239,246,248)"/><path d=" M 727 697 C 727 624.147 786.147 565 859 565 C 931.853 565 991 624.147 991 697 C 991 769.853 931.853 829 859 829 C 786.147 829 727 769.853 727 697 Z " fill="rgb(239,246,248)"/><rect x="0" y="362" width="334" height="438" transform="matrix(1,0,0,1,0,0)" fill="rgb(239,246,248)"/><rect x="266" y="473" width="277" height="327" transform="matrix(1,0,0,1,0,0)" fill="rgb(239,246,248)"/><rect x="266" y="594" width="423" height="206" transform="matrix(1,0,0,1,0,0)" fill="rgb(239,246,248)"/><rect x="454" y="594" width="423" height="206" transform="matrix(1,0,0,1,0,0)" fill="rgb(239,246,248)"/><path d=" M -236 672 C -236 567.136 -150.864 482 -46 482 C 58.864 482 144 567.136 144 672 C 144 776.864 58.864 862 -46 862 C -150.864 862 -236 776.864 -236 672 Z " fill="rgb(255,255,255)"/><path d=" M -66 784 C -66 679.136 19.136 594 124 594 C 228.864 594 314 679.136 314 784 C 314 888.864 228.864 974 124 974 C 19.136 974 -66 888.864 -66 784 Z " fill="rgb(255,255,255)"/><path d=" M 214.5 862 C 214.5 757.136 299.636 672 404.5 672 C 509.364 672 594.5 757.136 594.5 862 C 594.5 966.864 509.364 1052 404.5 1052 C 299.636 1052 214.5 966.864 214.5 862 Z " fill="rgb(255,255,255)"/></g></svg>