<?xml version="1.0" standalone="no"?><!-- Generator: Gravit.io --><svg xmlns="http://www.w3.org/2000/svg" xmlns:xlink="http://www.w3.org/1999/xlink" style="isolation:isolate" viewBox="0 0 1332.667 188.654" width="1332.667" height="188.654"><defs><clipPath id="_clipPath_nvvYCWE5iQXh6bgss5IUWL6FYF6ztqze"><rect width="1332.667" height="188.654"/></clipPath></defs><g clip-path="url(#_clipPath_nvvYCWE5iQXh6bgss5IUWL6FYF6ztqze)"><path d=" M 768.533 1.151 C 755.467 3.817 739.6 12.217 728.4 22.351 C 715.2 34.617 717.333 33.551 708.533 31.017 C 698.4 28.084 680 29.017 668.267 33.151 C 657.6 36.884 642 47.017 635.467 54.617 C 624.267 67.551 614.8 94.217 616.533 107.684 C 617.333 114.084 617.2 114.217 609.333 123.684 C 595.733 139.951 590.133 155.017 590.933 173.551 L 591.333 183.017 L 602.667 186.084 C 608.8 187.684 614.133 188.884 614.267 188.617 C 614.533 188.484 614 186.351 613.2 183.951 C 612.267 181.417 611.867 174.751 612.267 168.084 C 612.667 158.484 613.467 155.284 616.667 149.417 C 620.267 142.751 628.267 134.351 636.667 128.484 C 640.4 125.684 640.4 125.551 638.933 119.551 C 632.267 92.884 646.533 63.417 670.533 54.351 C 685.867 48.617 699.2 48.751 714.8 55.017 C 719.6 56.884 724.133 58.484 724.8 58.484 C 725.467 58.484 727.6 55.951 729.6 52.751 C 734.933 44.351 748.933 31.417 757.333 27.151 C 777.2 17.017 798.933 17.417 818.933 28.084 C 828.933 33.417 843.2 48.484 847.467 58.084 C 850.133 63.951 851.2 65.151 853.067 64.484 C 862.533 60.351 866.533 59.684 873.333 60.351 C 883.6 61.551 893.467 66.484 900.8 74.084 C 909.6 83.151 912.4 89.951 913.067 104.484 L 913.6 116.617 L 922.133 121.017 C 932.267 126.217 943.467 137.817 948.667 148.217 C 951.2 153.417 952.533 159.151 953.467 168.617 C 954.267 175.817 955.067 182.084 955.467 182.484 C 956.4 183.284 973.333 184.751 974.133 183.951 C 975.067 182.884 974.667 170.217 973.333 160.751 C 970 138.217 963.733 127.951 939.733 106.351 C 935.467 102.484 934.4 100.484 932.667 92.084 C 929.733 77.951 924.8 68.351 915.467 59.017 C 903.333 46.884 887.2 39.951 870.933 39.817 C 862.133 39.817 860.533 38.884 854.667 31.151 C 845.6 18.884 821.2 4.084 805.467 1.151 C 797.2 -0.449 776.533 -0.316 768.533 1.151 Z " fill="rgb(27,104,179)"/><path d=" M 189.333 39.817 L 189.333 51.817 L 194.4 51.817 C 197.2 51.817 200.133 52.484 201.067 53.417 C 202.267 54.617 202.667 70.217 202.667 115.017 C 202.8 162.217 203.067 175.684 204.533 177.417 C 207.467 181.284 212.933 182.484 228.133 182.484 L 242.667 182.484 L 242.667 170.617 L 242.667 158.617 L 236.4 158.217 L 230 157.817 L 229.333 96.484 C 228.933 62.751 228.133 34.351 227.467 33.284 C 225.067 29.551 217.467 27.817 203.333 27.817 L 189.333 27.817 L 189.333 39.817 Z " fill="rgb(27,104,179)"/><path d=" M 986.667 39.684 L 986.667 51.817 L 991.733 51.817 C 994.533 51.817 997.467 52.484 998.4 53.417 C 999.6 54.617 1000 70.084 1000 114.617 L 1000 174.351 L 1003.2 178.084 C 1006.4 181.684 1006.8 181.817 1023.2 182.351 L 1040 182.751 L 1040 170.751 L 1040 158.617 L 1034.4 158.217 L 1028.667 157.817 L 1028 96.884 L 1027.333 35.817 L 1023.6 32.217 C 1020 28.617 1019.467 28.484 1003.333 28.084 L 986.667 27.551 L 986.667 39.684 Z " fill="rgb(247,122,24)"/><path d=" M 15.6 42.084 C 15.067 42.484 14.667 49.417 14.667 57.417 L 14.667 71.817 L 7.333 71.817 L 0 71.817 L 0 82.484 L 0 93.151 L 7.333 93.151 L 14.667 93.151 L 14.667 122.484 C 14.667 156.084 16 162.084 24.933 170.751 C 33.6 179.017 40.267 181.551 55.067 182.217 L 68 182.751 L 68 170.617 L 68 158.484 L 62.4 158.484 C 55.467 158.484 48.533 155.151 44.8 150.084 C 42.267 146.617 42 144.084 41.6 119.684 L 41.067 93.151 L 53.867 93.151 L 66.667 93.151 L 66.667 82.484 L 66.667 71.817 L 54 71.817 L 41.333 71.817 L 41.333 56.484 L 41.333 41.151 L 28.933 41.151 C 22 41.151 16 41.551 15.6 42.084 Z " fill="rgb(27,104,179)"/><path d=" M 511.6 42.084 C 511.067 42.484 510.667 49.417 510.667 57.417 L 510.667 71.817 L 503.333 71.817 L 496 71.817 L 496 82.484 L 496 93.151 L 503.2 93.151 L 510.4 93.151 L 510.933 123.417 C 511.333 151.951 511.6 154.217 514.533 160.751 C 520.933 175.151 534.4 182.484 554 182.484 L 565.333 182.484 L 565.333 170.484 L 565.333 158.484 L 558.933 158.484 C 550.8 158.484 544 154.884 541.067 149.017 C 539.067 145.151 538.667 140.617 538.667 118.751 L 538.667 93.151 L 551.333 93.151 L 564 93.151 L 564 82.484 L 564 71.817 L 551.333 71.817 L 538.667 71.817 L 538.667 56.484 L 538.667 41.151 L 525.6 41.151 C 518.4 41.151 512 41.551 511.6 42.084 Z " fill="rgb(27,104,179)"/><path d=" M 106.533 71.017 C 90.667 74.617 85.067 80.617 84.267 94.484 L 83.733 103.817 L 96.533 103.817 L 109.333 103.817 L 109.333 100.084 C 109.333 98.084 109.867 95.817 110.4 94.884 C 113.2 90.484 127.333 89.017 135.333 92.351 C 140.533 94.617 143.467 99.551 144.133 107.151 L 144.667 112.484 L 130.267 113.417 C 104.133 115.017 86.4 122.751 79.6 135.817 C 76.133 142.351 75.867 144.084 76.267 152.617 C 77.2 167.417 84.133 176.884 98 182.217 C 114.133 188.351 135.867 182.617 143.867 170.084 L 146.667 165.817 L 146.667 170.084 C 146.667 172.617 148 175.817 149.867 178.084 C 153.067 181.684 153.467 181.817 169.2 182.351 L 185.333 182.751 L 185.333 170.617 L 185.333 158.484 L 179.333 158.484 C 174.267 158.484 173.333 158.084 172.667 155.417 C 172.4 153.817 171.867 140.217 171.733 125.151 C 171.333 100.617 171.067 97.151 168.533 91.684 C 164.667 83.417 157.067 76.484 148.133 73.017 C 138.933 69.417 117.6 68.484 106.533 71.017 Z  M 145.333 135.017 C 145.333 143.551 137.333 156.884 130.133 160.351 C 124.8 162.884 115.333 163.151 110.667 160.751 C 108.8 159.817 106.267 156.884 104.933 154.217 C 102.8 149.817 102.667 148.884 104.533 144.751 C 105.6 142.084 108 139.017 110 137.684 C 114.933 134.484 125.867 132.084 136.4 131.951 C 144.933 131.817 145.333 131.951 145.333 135.017 Z " fill="rgb(27,104,179)"/><path d=" M 293.6 70.484 C 284.933 72.351 272.4 79.551 266.533 86.217 C 259.467 94.351 254.933 104.351 253.067 116.351 C 246.4 159.151 282.133 192.617 324.267 183.284 C 334.667 181.017 347.333 175.284 353.067 170.484 L 356.133 167.951 L 350.533 158.884 C 347.333 153.951 344.667 149.551 344.4 149.284 C 344.267 149.017 342.933 149.684 341.733 150.751 C 340.4 151.951 336 154.484 332 156.617 C 325.733 159.817 323.067 160.351 314 160.484 C 302 160.484 296.533 158.484 289.333 151.417 C 284.933 147.151 282.533 142.484 280.8 135.417 L 280 131.817 L 317.867 131.817 L 355.733 131.817 L 356.667 125.417 C 359.6 104.217 346.4 80.084 328.133 73.017 C 319.733 69.817 302.933 68.484 293.6 70.484 Z  M 316.933 92.751 C 322.267 95.284 327.6 102.751 328.267 108.484 L 328.667 112.484 L 305.067 112.884 C 288.933 113.151 281.333 112.751 281.333 111.817 C 281.333 109.151 286.4 100.484 289.6 97.684 C 297.467 90.484 308.133 88.484 316.933 92.751 Z " fill="rgb(27,104,179)"/><path d=" M 428.4 71.684 C 420.133 74.484 412.933 79.817 408.933 85.951 C 407.333 88.351 405.733 90.484 405.333 90.484 C 404.933 90.484 404.8 88.084 405.067 85.151 C 405.467 80.751 404.933 79.284 401.6 75.817 L 397.6 71.817 L 381.467 71.817 L 365.333 71.817 L 365.333 83.151 L 365.333 94.484 L 370.4 94.484 C 373.2 94.484 376.133 95.151 377.067 96.084 C 378.267 97.284 378.667 108.884 378.667 140.084 L 378.667 182.484 L 391.867 182.484 L 404.933 182.484 L 405.6 151.417 C 406.133 120.617 406.133 120.217 409.867 112.751 C 415.733 100.751 425.467 94.484 438.133 94.484 C 445.2 94.484 449.6 97.017 452.267 102.484 C 454.4 106.484 454.667 111.284 454.667 137.817 C 454.667 155.417 455.333 170.617 456.133 173.551 C 458.133 180.884 462.8 182.484 481.333 182.484 L 496 182.484 L 496 170.617 L 496 158.617 L 489.733 158.217 L 483.333 157.817 L 482.533 127.151 C 482 106.217 481.2 94.751 479.867 91.151 C 476.933 82.884 467.333 73.817 458.8 71.284 C 449.333 68.484 437.067 68.617 428.4 71.684 Z " fill="rgb(27,104,179)"/><path d=" M 1108 70.351 C 1098.133 73.551 1088.267 81.151 1084.267 88.484 C 1082.933 90.751 1082.8 90.351 1082.667 85.417 C 1082.667 80.751 1081.867 78.751 1078.8 75.684 C 1074.933 71.817 1074.8 71.817 1058.8 71.817 L 1042.667 71.817 L 1042.667 83.151 L 1042.667 94.484 L 1047.733 94.484 C 1050.533 94.484 1053.467 95.151 1054.4 96.084 C 1055.6 97.284 1056 108.884 1056 140.084 L 1056 182.484 L 1069.2 182.484 L 1082.4 182.484 L 1082.933 152.084 C 1083.6 118.217 1084.533 113.684 1093.2 103.551 C 1101.067 94.351 1113.733 91.551 1120.533 97.417 C 1125.6 101.951 1126.667 110.484 1126.667 148.617 L 1126.667 182.484 L 1139.867 182.484 L 1153.067 182.484 L 1153.6 152.751 C 1154.267 119.017 1155.6 112.484 1163.733 103.551 C 1175.6 90.351 1192.8 91.551 1196 105.817 C 1196.667 108.751 1197.333 125.417 1197.333 142.751 C 1197.333 174.217 1197.333 174.351 1200.533 178.084 C 1203.733 181.684 1204.133 181.817 1220.533 182.351 L 1237.333 182.751 L 1237.333 170.617 L 1237.333 158.484 L 1231.467 158.484 C 1227.333 158.484 1225.333 157.817 1224.8 156.351 C 1224.4 155.151 1224 141.817 1224 126.617 C 1224 95.417 1222.667 88.351 1215.733 80.351 C 1208.533 72.217 1202.4 69.817 1188.667 69.817 C 1178.267 69.817 1175.733 70.351 1170 73.417 C 1166.267 75.284 1160.4 79.951 1156.8 83.817 C 1151.867 89.017 1150 90.351 1149.2 88.884 C 1148.533 87.951 1148 86.617 1148 85.951 C 1148 83.151 1140.8 75.551 1135.6 72.884 C 1129.6 69.817 1114 68.351 1108 70.351 Z " fill="rgb(247,122,24)"/><path d=" M 1273.6 71.284 C 1264.4 73.684 1260.267 75.951 1255.067 81.417 C 1249.6 87.151 1248 91.551 1248 101.284 C 1248 118.217 1256.8 126.884 1284.667 137.684 C 1298.267 143.017 1304.533 147.684 1305.067 152.751 C 1305.733 159.151 1300.533 162.484 1290.133 162.484 C 1280.933 162.484 1273.867 159.684 1263.6 152.351 C 1260 149.684 1256.667 148.084 1256.133 148.884 C 1255.733 149.551 1252.933 153.551 1250.133 157.684 L 1244.933 165.151 L 1248.533 169.017 C 1254.133 174.884 1266.667 181.017 1277.6 183.284 C 1300.133 188.084 1321.867 180.484 1330.267 164.751 C 1331.733 161.951 1332.533 157.417 1332.667 151.817 C 1332.667 144.751 1332 142.084 1329.067 137.017 C 1324 128.351 1318.133 124.484 1298.267 116.351 C 1276.533 107.417 1272.667 104.084 1275.467 96.484 C 1277.6 90.884 1292.267 88.484 1300 92.484 C 1302.8 93.951 1304 95.551 1304.267 98.751 L 1304.667 103.151 L 1317.067 103.551 L 1329.333 103.951 L 1329.333 96.351 C 1329.333 87.284 1326.267 80.351 1320.8 77.017 C 1309.067 69.684 1288.533 67.284 1273.6 71.284 Z " fill="rgb(247,122,24)"/><path d=" M 828.4 122.617 C 830.4 124.084 832 126.217 832 127.417 C 832 131.284 815.867 146.351 806.8 150.884 C 798.533 154.884 797.333 155.151 782.667 155.151 C 768 155.151 766.8 154.884 758.667 150.884 C 749.2 146.217 741.467 139.417 736.4 131.417 C 733.333 126.484 733.2 126.084 735.467 123.684 C 737.733 121.284 737.6 121.151 731.733 121.151 C 725.067 121.151 718.8 124.617 714.267 130.751 C 711.2 134.884 712 137.151 715.467 134.351 C 717.467 132.751 718.133 133.151 721.867 137.817 C 724.133 140.751 729.6 146.751 734 151.151 C 756.4 173.684 790 178.217 816.933 162.351 C 824.667 157.817 839.6 143.951 844.933 136.484 C 847.2 133.284 848 132.751 849.467 134.084 C 850.4 135.017 851.733 135.817 852.267 135.817 C 856.4 135.817 846.667 124.217 840.4 121.684 C 838 120.617 833.467 119.817 830.4 119.817 L 824.667 119.951 L 828.4 122.617 Z " fill="rgb(247,122,24)"/></g></svg>