<svg width="1255" height="631" viewBox="0 0 1255 631" fill="none" xmlns="http://www.w3.org/2000/svg">
<path d="M1248.49 153.987C1238.71 148.101 1073.71 9.42521 1063.42 3.43194C1059.37 1.06498 1054.59 3.99373 1053.06 10.2759C1050.25 21.6274 1038.74 68.6271 1036.27 79.2224C1035.37 83.1097 1036.81 87.1327 1039.6 88.5092L1079.02 107.919C1079.26 112.279 1079.46 116.26 1079.6 119.595C1081.66 170.275 1075.8 220.967 1062.22 269.853C1038.28 355.861 995.597 427.088 935.508 483.847C856.72 558.271 765.884 595.619 664.843 600.126C636.623 601.381 608.55 598.776 580.627 593.869C533.078 585.394 487.199 569.39 444.732 546.465C375.928 509.71 316.316 458.54 267.169 391.268C227.029 336.384 197.591 274.481 180.386 208.778C171.888 176.78 166.475 144.048 164.22 111.026L215.256 85.8933C218.044 84.5168 219.487 80.4938 218.588 76.6065C216.119 66.0112 204.607 19.0115 201.807 7.65998C200.252 1.38315 195.476 -1.54559 191.441 0.816041C181.163 6.81996 16.1592 145.496 6.37378 151.363C4.1756 152.566 2.39516 154.404 1.26723 156.636C0.139295 158.867 -0.28316 161.386 0.0555655 163.862C0.73457 172.663 0.685115 171.124 1.586 179.897C1.67437 180.845 1.81852 181.786 2.01773 182.718C2.8451 186.673 6.11447 188.873 8.94009 187.482L70.4889 157.167C76.0619 186.539 83.9803 215.421 94.1685 243.538C115.834 303.688 147.406 359.824 187.59 409.642C237.075 471.482 298.693 522.631 368.684 559.966C443.742 600.383 526.732 624.048 611.893 629.317C635.498 630.843 659.252 630.276 682.906 629.641C709.806 628.926 736.497 625.147 763.053 620.004C805.409 611.896 846.634 598.75 885.842 580.847C954.277 549.477 1015.21 504.733 1066.29 442.657C1109.42 390.231 1141.54 329.9 1161.24 260.842C1170.84 227.077 1177 192.433 1179.61 157.436L1245.96 190.102C1248.79 191.492 1252.05 189.291 1252.88 185.337C1253.07 184.405 1253.22 183.464 1253.31 182.516C1254.2 173.744 1254.16 175.268 1254.84 166.482C1255.16 164.005 1254.73 161.488 1253.6 159.259C1252.47 157.03 1250.69 155.193 1248.49 153.987V153.987Z" fill="#FF9C28"/>
</svg>
